<?xml version="1.0" encoding="utf-8"?>
<!-- Generator: Adobe Illustrator 24.0.0, SVG Export Plug-In . SVG Version: 6.00 Build 0)  -->
<svg version="1.1" id="Capa_1" xmlns="http://www.w3.org/2000/svg" xmlns:xlink="http://www.w3.org/1999/xlink" x="0px" y="0px"
	 viewBox="0 0 240 84" style="enable-background:new 0 0 240 84;" xml:space="preserve">
<style type="text/css">
	.st0{fill:#1C7C54;}
	.st1{font-family:'Boriboon-SemiBold';}
	.st2{font-size:18px;}
	.st3{fill:#FFFFFF;}
	.st4{fill:none;}
</style>
<text transform="matrix(1 0 0 1 83.5651 48.3144)" class="st0 st1 st2">SonidoSubasta</text>
<g>
	<circle class="st3" cx="42" cy="42" r="25"/>
	<g>
		<path class="st4" d="M19.5,42.5c0.2,5.2,1.9,9.8,5.1,13.7c3.8,4.7,9.4,7.7,15.5,8.2c0,0,0,0,0,0v0l0.1-2.7c0,0,0,0,0,0h0
			c1.2,0.1,2.4,0.1,3.6,0c0,0,0,0,0,0v0l0.1,2.7c0,0,0,0,0.1,0l0,0l0,0c11.4-1,20.2-10.4,20.5-21.9v22H19.5V42.5z"/>
		<path class="st4" d="M19.5,19.5h21.9c-6.2,0.2-12.1,2.9-16.2,7.6c-3.6,4.1-5.5,8.9-5.6,14.4V19.5z"/>
		<path class="st0" d="M41.4,19.5h1.2c5.2,0.2,9.8,1.9,13.8,5.2c5,4.1,8,10.3,8.1,16.8v1C64.2,54,55.4,63.4,44,64.5c0,0-0.1,0-0.1,0
			l0,0l-0.1-2.7c0,0,0,0,0,0h0c-1.2,0.1-2.4,0.1-3.6,0c0,0,0,0,0,0v0l-0.1,2.7c0,0,0,0,0,0h0C34,63.9,28.4,61,24.6,56.2
			c-3.2-3.9-4.9-8.5-5.1-13.7v-1c0.2-5.5,2.1-10.3,5.6-14.4C29.3,22.5,35.1,19.7,41.4,19.5z M41.4,24.4l-0.6,2c0,0,0,0,0,0
			c-0.2,0-0.3-0.1-0.5-0.1c-0.5-0.3-0.8-1.5-1.4-1.1c-0.2,0.1-0.3,0.3-0.3,0.5c0,0.2-0.1,0.4-0.2,0.7c-0.1,0.1-0.1,0.3-0.1,0.4
			c0,0.4,0.4,0.6,0.7,0.4c0.6-0.3,1-0.6,1.6-0.3c0,0,0,0,0,0.1l0,0l-0.6,2c0,0,0,0-0.1,0c-0.7,0-0.9-0.6-1.3-1.1
			c-0.2-0.3-0.5-0.3-0.7-0.1c-0.1,0.1-0.1,0.2-0.2,0.5c-0.1,0.3-0.1,0.5-0.2,0.8c-0.1,0.3,0,0.6,0.4,0.7c0.2,0,0.7-0.3,1-0.4
			c0.3-0.1,0.6-0.1,0.9,0c0,0,0,0,0,0.1l-0.6,2c0,0,0,0-0.1,0c-0.4,0-0.6-0.1-0.8-0.4c-0.2-0.2-0.4-0.8-0.7-0.9
			c-0.3-0.1-0.6,0.1-0.6,0.4c-0.1,0.3-0.1,0.6-0.3,1c-0.1,0.3,0.2,0.8,0.6,0.7c0.3-0.1,0.6-0.3,0.9-0.4c0.3-0.1,0.5-0.1,0.8,0.1
			c0,0,0,0,0,0.1c-0.2,0.5-0.3,1.2-0.1,1.5c0.1,0.2,0.4,0.3,0.7,0.4c0.4,0.2,0.7,0.5,0.9,0.9s0,1.1,0,1.7c0,0,0,0,0,0c0,0,0,0,0,0
			l2.5,0c0,0,0,0,0,0v0c0-0.6,0-1.2,0-1.9c0-1.1,1.4-1.8,1.6-3c0-0.2,0-0.5-0.1-1c-0.2-1.1-0.4-2.2-0.6-3.4C44,26.6,44,25.2,44.9,25
			c0,0,0,0,0.1-0.1c0.6-2.4-2.7-3.5-3.4-1c0,0,0,0-0.1,0c-0.6-0.1-0.9-0.4-1.2-1c-0.2-0.3-0.4-0.5-0.8-0.3c-0.1,0.1-0.2,0.2-0.2,0.3
			c0,0.3-0.1,0.6-0.2,0.8c-0.1,0.4-0.2,0.7,0.2,0.9c0,0,0.1,0,0.1,0C40.1,24.6,40.6,24,41.4,24.4C41.4,24.3,41.4,24.4,41.4,24.4
			C41.4,24.4,41.4,24.4,41.4,24.4L41.4,24.4z M34.6,40.5c-1,1.6-1.3,3.7-0.8,5.5c0.7,2.9,3,4.2,5.7,4.9c1.8,0.5,3.2,0.9,4.1,1.1
			c0.4,0.1,0.8,0.3,1.2,0.5c0.9,0.6,1.2,2,0.5,2.8c-0.6,0.7-1.8,1-2.8,0.9c-0.9,0-1.8-0.1-2.7-0.2c-2.2-0.3-4.3-1-6.2-2c0,0,0,0,0,0
			v0v4.8c0,0,0,0.1,0,0.1c0.8,0.5,1.6,0.9,2.5,1.1c2,0.6,4,0.8,6.1,0.8c2,0,4.2-0.3,6-1.4c2.1-1.3,3.1-3.3,2.9-6
			c-0.1-1.6-0.6-3.1-1.8-4.1c-1-0.9-2.3-1.5-3.6-1.8c-1.6-0.4-3.2-0.9-4.8-1.4c-1.1-0.3-2-1.1-1.9-2.3c0.2-1.9,3.1-1.9,4.4-1.8
			c2.1,0.2,4.1,0.7,5.9,1.6c0,0,0,0,0,0v-4.4c0,0,0-0.1,0-0.1c-1.3-0.8-2.7-1.3-4.2-1.5C41.6,37.1,36.8,37.2,34.6,40.5L34.6,40.5z
			 M41,45.4c0.8,0.3,1.6,0.5,2.4,0.7c0,0,0,0,0,0l-0.1-3c0,0,0-0.1,0-0.1l0,0c-0.9-0.1-1.8,0-2.7,0.2c-0.1,0-0.2,0.1-0.2,0.2l0,1.6
			c0,0,0,0.1,0,0.1C40.7,45.2,40.9,45.3,41,45.4L41,45.4z M43.6,52.9L40.4,52c0,0,0,0,0,0l-0.1,3.2c0,0,0,0,0,0c0,0,0,0,0,0
			c1,0.1,2.1,0.1,3.1,0c0.1,0,0.2,0,0.2-0.1c0,0,0,0,0-0.1L43.6,52.9C43.7,52.9,43.6,52.9,43.6,52.9L43.6,52.9z"/>
		<path class="st4" d="M42.6,19.5h21.9v22c-0.2-6.5-3.1-12.7-8.1-16.8C52.4,21.5,47.8,19.7,42.6,19.5z"/>
		<path class="st3" d="M41.4,24.3c-0.8-0.4-1.2,0.2-1.9,0.4c0,0-0.1,0-0.1,0c-0.4-0.2-0.4-0.5-0.2-0.9c0.1-0.3,0.2-0.5,0.2-0.8
			c0-0.1,0.1-0.2,0.2-0.3c0.4-0.3,0.6-0.1,0.8,0.3c0.4,0.6,0.6,0.9,1.2,1c0,0,0,0,0.1,0c0.7-2.5,4.1-1.3,3.4,1c0,0,0,0-0.1,0.1
			c-0.9,0.2-0.9,1.6-0.8,2.3c0.2,1.1,0.4,2.2,0.6,3.4c0.1,0.4,0.1,0.7,0.1,1c-0.2,1.2-1.6,1.9-1.6,3c0,0.6,0,1.2,0,1.9c0,0,0,0,0,0
			h0l-2.5,0c0,0,0,0,0,0c0,0,0,0,0,0c0-0.5,0.1-1.2,0-1.7c-0.1-0.4-0.4-0.7-0.9-0.9c-0.2-0.1-0.5-0.2-0.7-0.4
			c-0.3-0.4-0.1-1.1,0.1-1.5c0,0,0-0.1,0-0.1c-0.3-0.1-0.5-0.2-0.8-0.1c-0.3,0.1-0.6,0.3-0.9,0.4c-0.4,0.2-0.7-0.3-0.6-0.7
			c0.1-0.3,0.2-0.6,0.3-1c0-0.3,0.3-0.5,0.6-0.4c0.3,0.1,0.6,0.6,0.7,0.9c0.2,0.3,0.4,0.4,0.8,0.4c0,0,0,0,0.1,0l0.6-2
			c0,0,0-0.1,0-0.1c-0.3-0.2-0.6-0.2-0.9,0c-0.2,0.1-0.7,0.4-1,0.4c-0.3-0.1-0.5-0.4-0.4-0.7c0.1-0.3,0.2-0.5,0.2-0.8
			c0.1-0.3,0.1-0.4,0.2-0.5c0.2-0.2,0.5-0.2,0.7,0.1c0.4,0.5,0.5,1.1,1.3,1.1c0,0,0.1,0,0.1,0l0.6-2c0,0,0-0.1,0-0.1l0,0
			c-0.6-0.3-1,0-1.6,0.3c-0.4,0.2-0.7-0.1-0.7-0.4c0-0.1,0.1-0.3,0.1-0.4c0.1-0.2,0.1-0.4,0.2-0.7c0-0.2,0.1-0.4,0.3-0.5
			c0.6-0.3,0.9,0.9,1.4,1.1c0.1,0.1,0.3,0.1,0.5,0.1c0,0,0,0,0,0L41.4,24.3C41.4,24.4,41.4,24.3,41.4,24.3z"/>
		<path class="st3" d="M34.6,40.5c2.2-3.3,7-3.4,10.5-2.9c1.5,0.2,2.9,0.8,4.2,1.5c0,0,0,0,0,0.1v4.4c0,0,0,0,0,0
			c-1.9-0.9-3.9-1.4-5.9-1.6c-1.4-0.1-4.2-0.1-4.4,1.8c-0.1,1.2,0.8,2,1.9,2.3c1.6,0.5,3.2,0.9,4.8,1.4c1.3,0.4,2.6,1,3.6,1.8
			c1.2,1.1,1.7,2.5,1.8,4.1c0.2,2.7-0.8,4.7-2.9,6c-1.8,1.1-3.9,1.3-6,1.4c-2,0-4.1-0.2-6.1-0.8c-0.9-0.3-1.7-0.6-2.5-1.1
			c0,0,0,0,0-0.1v-4.8c0,0,0,0,0,0l0,0h0c1.9,1.1,4,1.8,6.2,2c0.9,0.1,1.8,0.2,2.7,0.2c1,0,2.2-0.2,2.8-0.9c0.7-0.8,0.4-2.2-0.5-2.8
			c-0.4-0.2-0.8-0.4-1.2-0.5c-0.9-0.2-2.2-0.6-4.1-1.1c-2.6-0.7-5-2-5.7-4.9C33.4,44.1,33.6,42.1,34.6,40.5z"/>
		<path class="st3" d="M41,45.3c-0.2-0.1-0.3-0.1-0.5-0.2c0,0,0-0.1,0-0.1l0-1.6c0-0.1,0.1-0.2,0.2-0.2c0.9-0.2,1.8-0.3,2.7-0.2
			c0,0,0.1,0,0.1,0.1c0,0,0,0,0,0l0.1,3c0,0,0,0,0,0C42.6,45.8,41.8,45.6,41,45.3z"/>
		<path class="st3" d="M43.6,52.8C43.6,52.9,43.7,52.9,43.6,52.8l0.1,2.3c0,0,0,0.1,0,0.1c-0.1,0-0.2,0.1-0.2,0.1
			c-1,0.1-2.1,0.1-3.1,0c0,0,0,0,0,0c0,0,0,0,0,0l0.1-3.2c0,0,0,0,0,0L43.6,52.8z"/>
	</g>
</g>
</svg>
