<?xml version="1.0" encoding="utf-8"?>
<!-- Generator: Adobe Illustrator 24.0.0, SVG Export Plug-In . SVG Version: 6.00 Build 0)  -->
<svg version="1.1" id="Capa_1" xmlns="http://www.w3.org/2000/svg" xmlns:xlink="http://www.w3.org/1999/xlink" x="0px" y="0px"
	 viewBox="0 0 512 512" style="enable-background:new 0 0 512 512;" xml:space="preserve">
<style type="text/css">
	.st0{fill:#FFFFFF;}
	.st1{fill:none;}
	.st2{fill:#1C7C54;}
</style>
<title>S logo svg</title>
<circle class="st0" cx="256" cy="256" r="256"/>
<g>
	<path class="st1" d="M26,260.9c1.7,53.1,19,99.9,51.8,140.3c39.3,48.2,96.4,78.4,158.3,83.8c0.2,0,0.3-0.1,0.4-0.2v-0.1l0.7-27.4
		c0-0.2,0.1-0.4,0.3-0.4h0.1c12.3,0.8,24.7,0.8,37,0c0.2,0,0.4,0.1,0.4,0.3v0.1l0.8,27.2c0,0.3,0.3,0.4,0.5,0.4l0,0l0,0
		C393.5,474.7,482.9,378.2,486,260.9V486H26V260.9z"/>
	<path class="st1" d="M26,26h223.8c-64,2.1-124.3,30.1-166,77.5C47.1,145.2,27.9,194.4,26,251V26z"/>
	<path class="st2" d="M249.8,26h11.9c53.5,2,100.4,19.7,141,53c51.6,42.4,81.5,105.7,83.3,172.2v10.2
		c-3,117.5-92.4,214.2-209.6,224.6c-0.3,0-0.5-0.2-0.5-0.4l0,0l-0.8-27.2c0-0.2-0.1-0.4-0.3-0.4h-0.1c-12.3,0.8-24.7,0.8-37,0
		c-0.2,0-0.4,0.1-0.4,0.3v0.1l-0.7,27.4c0,0.2-0.1,0.3-0.3,0.3h-0.1c-62-5.5-119.1-35.8-158.3-84.1C45,361.5,27.7,314.6,26,261.4
		v-10c1.9-56.7,21.1-105.9,57.8-147.7C125.5,56.1,185.8,28.1,249.8,26z M249.8,75.9l-6.2,20.5c0,0.2-0.3,0.4-0.4,0.4
		c-1.7,0-3.4-0.5-4.9-1.3c-4.7-2.7-8-15.2-14.1-11.6c-1.9,1.1-2.7,3.1-2.9,5.2c-0.3,2.3-0.8,4.6-1.7,6.7c-0.6,1.3-1.1,2.7-1.3,4.2
		c0,3.8,3.6,6.2,7.1,4.4c5.8-3,10-6.4,16.4-3.4c0.3,0.1,0.4,0.4,0.3,0.6l0,0l-6,20.8c-0.1,0.3-0.4,0.4-0.6,0.4
		c-7.4-0.4-9.2-6.6-12.9-11.5c-2-2.6-5.1-3.2-7.3-0.6c-0.6,0.7-1.2,2.3-1.7,4.9c-0.6,2.8-1.4,5.5-2.5,8.2c-1.3,3.2,0.3,6.6,3.7,7.2
		c2.5,0.4,7.5-2.9,10-4c3.1-1.5,6.6-1.4,9.5,0.3c0.3,0.1,0.4,0.4,0.3,0.6l-5.8,20.4c-0.1,0.3-0.3,0.4-0.5,0.4
		c-3.7-0.1-6.4-1.4-8.1-4.1c-1.6-2.5-4.6-8.1-7.4-9c-3.1-1-5.7,1.5-6.1,4.6c-0.6,3.3-1.5,6.6-2.8,9.8c-1.3,3.3,1.8,8.6,5.8,6.8
		c3.1-1.5,6.3-2.9,9.5-4.2c3-1.2,5.3-0.6,8,0.5c0.3,0.1,0.4,0.4,0.3,0.7c-1.7,4.7-3.4,12-0.7,15.8c1.4,2.1,4.6,3.1,6.7,4.1
		c4.2,2.1,7.2,4.8,8.7,9.2c1.5,4.4,0.3,11.8,0.4,17.1c0,0.2,0.1,0.4,0.3,0.4c0,0,0,0,0.1,0l25.8,0.1c0.2,0,0.4-0.1,0.4-0.3V200
		c-0.3-6.4-0.4-12.8-0.3-19.1c0.2-11.4,14.5-18.1,16.4-30.8c0.4-2.2,0.1-5.6-0.8-9.9c-2.4-11.4-4.6-22.9-6.6-34.4
		c-1.3-7.4-1-21.9,8.3-24c0.3,0,0.4-0.3,0.5-0.5c6.6-24.3-27.9-35.8-35.3-10.6c-0.1,0.3-0.3,0.4-0.5,0.4c-6.6-0.5-9.1-4.1-12.6-10
		c-2.1-3.3-4-5.5-7.7-2.7c-1.1,0.6-1.8,1.8-2.1,3.1c-0.4,2.9-1.1,5.7-2,8.5c-1.4,4.1-2.2,7.2,2.3,9.2c0.3,0.1,0.6,0.2,0.9,0.1
		c7.2-1.8,11.6-7.9,19.7-3.8C249.9,75.2,250,75.6,249.8,75.9C249.9,75.9,249.9,75.9,249.8,75.9L249.8,75.9z M180.6,240.9
		c-10.7,16.3-12.8,37.5-8.4,56.2c7.1,29.5,30.7,42.6,57.9,50c18.8,5.1,32.7,8.9,41.8,11.3c4.4,1.2,8.6,3.1,12.5,5.5
		c9.7,6.1,12.5,20.1,5.3,28.8c-6.2,7.5-18.7,9.8-28.6,9.7c-9.3,0-18.4-0.6-27.6-1.6c-22.1-2.7-43.6-9.8-63-20.7
		c-0.2-0.1-0.3,0-0.4,0.1v0.1v49.1c0,0.3,0.1,0.5,0.4,0.6c8.1,4.9,16.8,8.8,26,11.5c20.1,5.8,41.1,8.4,62,8c20.8-0.4,42.9-3,61-14.1
		c21.6-13.3,31.5-33.7,29.9-61.2c-1-16.4-6.2-31.4-18.7-42.4c-10-8.8-23.9-15-36.7-18.6c-16.4-4.6-32.8-9.3-49.1-14.1
		c-11-3.2-20.3-11-19-23.6c2.1-19.7,31.4-19.6,45.3-18.4c21,1.7,41.5,7.3,60.6,16.4c0.3,0.1,0.4,0.1,0.4-0.3v-45.2
		c0-0.3-0.2-0.5-0.4-0.7c-13.4-7.9-28.1-13.3-43.5-15.7C252,206,202.9,207.1,180.6,240.9L180.6,240.9z M246.1,290.3
		c8.2,2.7,16.5,5.1,25,7.2c0.3,0.1,0.4,0,0.4-0.4l-0.7-30.5c0-0.3-0.2-0.5-0.4-0.5l0,0c-9.3-1-18.5-0.3-27.5,2.2
		c-1,0.2-1.6,1.1-1.6,2l-0.4,16.9c0,0.4,0.2,0.6,0.4,0.8C242.8,288.9,244.4,289.7,246.1,290.3L246.1,290.3z M272.7,367.7l-33.1-8.9
		c-0.3-0.1-0.4,0-0.4,0.4l-0.6,32.7c0,0.2,0.1,0.4,0.4,0.4c0,0,0,0,0.1,0c10.5,1.3,21.1,1.4,31.6,0.4c0.9-0.1,1.7-0.4,2.5-0.7
		c0.3-0.1,0.4-0.4,0.4-0.6l-0.4-23.4C273.1,367.9,272.9,367.8,272.7,367.7L272.7,367.7z"/>
	<path class="st1" d="M261.8,26H486v224.9c-1.8-66.5-31.7-129.6-83.3-172C362.1,45.6,315.1,28,261.8,26z"/>
	<path class="st0" d="M249.6,75.1c-8.2-4.1-12.5,2-19.7,3.8c-0.3,0.1-0.6,0.1-0.9-0.1c-4.5-2-3.9-5-2.3-9.1c1-2.8,1.6-5.6,2-8.4
		c0.3-1.3,1-2.3,2.1-3.1c3.8-2.8,5.7-0.6,7.7,2.7c3.6,5.8,6,9.4,12.6,10c0.3,0,0.4-0.1,0.5-0.4c7.4-25.2,42-13.7,35.3,10.5
		c-0.1,0.3-0.3,0.4-0.5,0.5c-9.3,2.1-9.5,16.6-8.3,24c2.1,11.5,4.2,22.9,6.6,34.4c0.9,4.3,1.2,7.6,0.8,9.9
		c-2,12.7-16.3,19.3-16.4,30.7c-0.1,6.4,0,12.8,0.3,19c0,0.2-0.1,0.4-0.3,0.4H269l-25.8-0.1c-0.2,0-0.4-0.1-0.4-0.3c0,0,0,0,0-0.1
		c-0.1-5.3,1.1-12.7-0.4-17.1c-1.5-4.4-4.5-7.1-8.7-9.2c-2.2-1.1-5.3-2.1-6.7-4.1c-2.6-3.8-1-11.1,0.7-15.8c0.1-0.3,0-0.5-0.3-0.7
		c-2.8-1.2-5-1.7-8-0.5c-3.2,1.3-6.4,2.7-9.5,4.1c-3.9,1.8-7-3.5-5.8-6.8c1.3-3.1,2.2-6.5,2.8-9.8c0.4-3.1,3.1-5.5,6.1-4.5
		c2.8,0.9,5.7,6.4,7.4,8.9c1.7,2.7,4.4,4.1,8.1,4.1c0.3,0,0.4-0.1,0.5-0.4l5.8-20.4c0.1-0.3,0-0.5-0.3-0.6c-3-1.7-6.6-1.8-9.5-0.3
		c-2.4,1.2-7.5,4.5-10,4c-3.4-0.6-4.9-4-3.7-7.2c1.1-2.6,1.9-5.4,2.5-8.2c0.5-2.6,1.1-4.2,1.7-4.9c2.2-2.5,5.3-1.9,7.3,0.6
		c3.8,4.9,5.6,11.1,12.9,11.5c0.3,0,0.5-0.2,0.6-0.4l6-20.7c0.1-0.3,0-0.5-0.3-0.6l0,0c-6.5-3-10.7,0.4-16.4,3.3
		c-3.6,1.9-7.1-0.5-7.1-4.4c0.2-1.4,0.6-2.9,1.3-4.1c0.9-2.2,1.4-4.4,1.7-6.7c0.2-2.1,1-4.1,2.9-5.2c6.1-3.5,9.4,9,14.1,11.6
		c1.5,0.8,3.2,1.3,4.9,1.3c0.2,0,0.4-0.1,0.4-0.4l6.2-20.5C249.9,75.5,249.8,75.2,249.6,75.1z"/>
	<path class="st0" d="M180.6,240.5c22.3-33.7,71.4-34.9,107.5-29.2c15.4,2.4,30.1,7.7,43.5,15.6c0.3,0.2,0.4,0.4,0.4,0.7v45.1
		c0,0.4-0.2,0.4-0.4,0.3c-19-9.2-39.5-14.7-60.6-16.4c-13.8-1.1-43.2-1.3-45.3,18.4c-1.3,12.7,8.1,20.4,19,23.6
		c16.4,4.8,32.7,9.5,49.1,14.1c12.8,3.6,26.8,9.8,36.7,18.6c12.6,11.1,17.7,26.1,18.7,42.4c1.7,27.5-8.3,47.8-29.9,61.1
		c-18.1,11.1-40.2,13.7-61,14.1c-20.9,0.4-41.9-2.2-62-8c-9.2-2.7-17.9-6.6-26-11.5c-0.3-0.1-0.4-0.4-0.4-0.6v-49.2
		c0-0.2,0.1-0.3,0.3-0.3l0,0h0.1c19.4,11,40.9,18,63,20.7c9.2,1.1,18.4,1.6,27.6,1.7c9.9,0.1,22.4-2.2,28.6-9.7
		c7.2-8.6,4.4-22.6-5.3-28.8c-3.9-2.4-8.1-4.3-12.5-5.5c-9.1-2.4-22.9-6.2-41.8-11.3c-27.1-7.4-50.9-20.6-57.9-50
		C167.8,277.9,169.9,256.7,180.6,240.5z"/>
	<path class="st0" d="M246.1,289.8c-1.7-0.5-3.3-1.3-4.9-2.4c-0.3-0.2-0.4-0.5-0.4-0.8l0.4-16.8c-0.1-1,0.6-1.8,1.6-2
		c9-2.3,18.3-3.1,27.5-2.2c0.3,0,0.5,0.2,0.5,0.5c0,0,0,0,0,0.1l0.7,30.5c0,0.4-0.2,0.4-0.4,0.4
		C262.6,294.9,254.3,292.5,246.1,289.8z"/>
	<path class="st0" d="M272.7,367c0.2,0.1,0.4,0.3,0.4,0.4l0.4,23.3c0,0.3-0.2,0.5-0.4,0.6c-0.8,0.4-1.6,0.6-2.5,0.7
		c-10.5,1-21.2,0.8-31.7-0.4c-0.2,0-0.4-0.2-0.4-0.4c0,0,0,0,0-0.1l0.6-32.7c0-0.3,0.2-0.4,0.4-0.4L272.7,367z"/>
</g>
</svg>
