<svg id="Capa_1" data-name="Capa 1" xmlns="http://www.w3.org/2000/svg" viewBox="0 0 512 512"><defs><style>.cls-1{fill:none;}.cls-2{fill:#1c7c54;}.cls-3{fill:#fff;}</style></defs><title>S logo svg</title><path class="cls-1" d="M0,261.5q2.87,88.65,57.66,156.25a256,256,0,0,0,176.22,93.32.3.3,0,0,0,.37-.33l.82-30.49a.35.35,0,0,1,.42-.38,326.3,326.3,0,0,0,41.25,0,.34.34,0,0,1,.4.37l.85,30.26a.55.55,0,0,0,.57.54h0C409,499.44,508.57,392.09,512,261.59V512H0Z"/><path class="cls-1" d="M0,0H249.13C177.92,2.28,110.74,33.46,64.3,86.3Q3.12,155.93,0,250.44Z"/><path class="cls-2" d="M249.13,0h13.24q89.2,3.3,156.93,59C476.67,106.15,510,176.58,512,250.74v11.32C508.57,392.8,409,500.35,278.6,512a.56.56,0,0,1-.61-.5v0l-.85-30.32a.34.34,0,0,0-.4-.37,324.44,324.44,0,0,1-41.25,0,.35.35,0,0,0-.42.38l-.82,30.55a.3.3,0,0,1-.37.33A255.83,255.83,0,0,1,57.66,418.51Q2.86,350.79,0,262V250.89Q3.1,156.21,64.3,86.46C110.74,33.52,177.92,2.28,249.13,0Zm0,55.52-6.85,22.83a.46.46,0,0,1-.52.37,11.82,11.82,0,0,1-5.48-1.49c-5.2-3-8.9-16.86-15.7-12.92-2.11,1.21-3,3.49-3.23,5.83a26.53,26.53,0,0,1-1.88,7.52,15.25,15.25,0,0,0-1.4,4.65c0,4.25,4,6.93,7.94,4.87,6.44-3.35,11.12-7.05,18.31-3.8a.56.56,0,0,1,.33.72L234,107.18a.62.62,0,0,1-.68.49c-8.18-.4-10.22-7.33-14.43-12.84-2.19-2.86-5.72-3.56-8.08-.73-.67.8-1.29,2.64-1.86,5.5a52.6,52.6,0,0,1-2.78,9.08c-1.42,3.57.28,7.35,4.08,8,2.8.51,8.35-3.18,11.06-4.45a11.35,11.35,0,0,1,10.65.27.55.55,0,0,1,.29.68l-6.35,22.68a.51.51,0,0,1-.55.41q-6.12-.09-9-4.63c-1.81-2.83-5.07-9-8.21-10-3.45-1.07-6.32,1.65-6.83,5.06a55,55,0,0,1-3.11,10.93c-1.4,3.71,2,9.61,6.35,7.57q5.22-2.48,10.61-4.66c3.3-1.33,5.86-.72,8.92.62a.62.62,0,0,1,.33.78c-1.9,5.16-3.76,13.37-.82,17.61,1.6,2.3,5.07,3.43,7.54,4.65,4.69,2.31,8,5.26,9.68,10.21s.31,13.12.46,19a.36.36,0,0,0,.39.39l28.74.13a.41.41,0,0,0,.46-.48q-.48-10.64-.3-21.27c.22-12.69,16.15-20.11,18.33-34.27q.58-3.76-.94-11-4-19.11-7.36-38.34c-1.44-8.15-1.11-24.42,9.21-26.72a.71.71,0,0,0,.59-.56c7.36-27-31.12-39.94-39.29-11.75a.5.5,0,0,1-.58.4c-7.36-.56-10.08-4.64-14-11.08-2.27-3.71-4.4-6.12-8.62-3a5.12,5.12,0,0,0-2.32,3.36,48.39,48.39,0,0,1-2.21,9.45c-1.64,4.6-2.35,8,2.62,10.17a1.57,1.57,0,0,0,1,.09c8-2.05,12.85-8.82,21.92-4.2A.53.53,0,0,1,249.14,55.52Zm-77,183.65c-11.91,18.1-14.31,41.71-9.3,62.46C170.71,334.4,197,349,227.26,357.3q31.37,8.58,46.46,12.65a50.65,50.65,0,0,1,13.92,6.1c10.8,6.82,13.92,22.39,5.88,32-6.91,8.27-20.8,10.9-31.78,10.77A280.77,280.77,0,0,1,231,417a190.12,190.12,0,0,1-70.1-23.05.32.32,0,0,0-.43.14.23.23,0,0,0,0,.14V449a.8.8,0,0,0,.42.74,119.68,119.68,0,0,0,28.89,12.79,235.19,235.19,0,0,0,69,8.92c23.13-.39,47.77-3.29,67.94-15.7q36-22.17,33.26-68.09c-1.09-18.18-6.85-35-20.8-47.25-11.13-9.81-26.64-16.73-40.9-20.71q-27.4-7.65-54.7-15.69c-12.22-3.6-22.64-12.19-21.18-26.31,2.28-21.94,35-21.8,50.36-20.54a188.62,188.62,0,0,1,67.35,18.3c.31.15.47.06.47-.29v-50.3a.86.86,0,0,0-.46-.8,136.52,136.52,0,0,0-48.43-17.47C251.62,200.29,196.86,201.58,172.09,239.17Zm72.86,55q13.7,4.56,27.78,8c.34.08.51-.05.5-.4l-.83-34a.57.57,0,0,0-.56-.62,84.89,84.89,0,0,0-30.62,2.36,2.17,2.17,0,0,0-1.77,2.24l-.35,18.77a1.12,1.12,0,0,0,.48.94A21,21,0,0,0,245,294.14Zm29.64,86.18-36.76-9.86c-.31-.08-.47,0-.47.36l-.74,36.44a.42.42,0,0,0,.42.48,161.93,161.93,0,0,0,35.21.51,10.45,10.45,0,0,0,2.77-.79.69.69,0,0,0,.47-.71L275,380.82A.51.51,0,0,0,274.59,380.32Z"/><path class="cls-1" d="M262.37,0H512V250.29c-2-74-35.33-144.33-92.7-191.41Q351.57,3.29,262.37,0Z"/><path class="cls-3" d="M248.85,54.73c-9.07-4.61-13.95,2.15-21.92,4.19a1.45,1.45,0,0,1-1-.09c-5-2.17-4.26-5.56-2.62-10.15a48.34,48.34,0,0,0,2.21-9.43,5.12,5.12,0,0,1,2.32-3.36c4.22-3.09,6.35-.68,8.62,3,4,6.43,6.68,10.5,14,11.06a.5.5,0,0,0,.58-.4c8.17-28.14,46.65-15.26,39.29,11.73a.73.73,0,0,1-.59.56c-10.32,2.29-10.65,18.53-9.21,26.67q3.38,19.18,7.36,38.27,1.51,7.23.94,11c-2.18,14.13-18.11,21.54-18.33,34.21q-.18,10.62.3,21.23a.41.41,0,0,1-.46.48l-28.74-.13a.36.36,0,0,1-.39-.39c-.15-5.9,1.19-14.07-.46-19s-5-7.88-9.68-10.19c-2.47-1.22-5.94-2.34-7.54-4.64-2.94-4.23-1.08-12.43.82-17.58a.62.62,0,0,0-.33-.78c-3.06-1.33-5.62-1.94-8.92-.61q-5.38,2.18-10.61,4.65c-4.32,2-7.75-3.86-6.35-7.56a54.85,54.85,0,0,0,3.11-10.91c.51-3.4,3.38-6.12,6.83-5,3.14,1,6.4,7.11,8.21,9.93q2.89,4.53,9,4.62a.5.5,0,0,0,.55-.41L232.24,113a.54.54,0,0,0-.29-.67,11.35,11.35,0,0,0-10.65-.27c-2.71,1.26-8.26,5-11.06,4.44-3.8-.7-5.5-4.47-4.08-8a52.42,52.42,0,0,0,2.78-9.06q.85-4.29,1.86-5.49c2.36-2.83,5.89-2.13,8.08.73,4.21,5.5,6.25,12.42,14.43,12.81A.61.61,0,0,0,234,107l6.67-23a.56.56,0,0,0-.33-.72C233.14,80,228.46,83.68,222,87c-4,2.06-7.92-.62-7.94-4.86a15.22,15.22,0,0,1,1.4-4.64A26.46,26.46,0,0,0,217.36,70c.24-2.33,1.12-4.61,3.23-5.82,6.8-3.93,10.5,10,15.7,12.9a11.82,11.82,0,0,0,5.48,1.49.47.47,0,0,0,.52-.37l6.85-22.79A.53.53,0,0,0,248.85,54.73Z"/><path class="cls-3" d="M172.09,238.74c24.77-37.53,79.53-38.81,119.58-32.47A136.64,136.64,0,0,1,340.1,223.7a.87.87,0,0,1,.46.8v50.21c0,.35-.16.44-.47.29a189,189,0,0,0-67.35-18.27c-15.38-1.25-48.08-1.39-50.36,20.51-1.46,14.09,9,22.67,21.18,26.26q27.29,8,54.7,15.66c14.26,4,29.77,10.88,40.9,20.67,13.95,12.26,19.71,29,20.8,47.17q2.78,45.84-33.26,68c-20.17,12.39-44.81,15.29-67.94,15.68a235.52,235.52,0,0,1-69-8.91A119.54,119.54,0,0,1,160.86,449a.81.81,0,0,1-.42-.74V393.5a.32.32,0,0,1,.32-.32.42.42,0,0,1,.15,0,190.22,190.22,0,0,0,70.1,23,280.77,280.77,0,0,0,30.73,1.85c11,.13,24.87-2.49,31.78-10.75,8-9.6,4.92-25.14-5.88-31.95a50.62,50.62,0,0,0-13.92-6.09q-15.09-4.06-46.46-12.63c-30.25-8.25-56.55-22.86-64.47-55.57C157.78,280.37,160.18,256.8,172.09,238.74Z"/><path class="cls-3" d="M245,293.61a21.38,21.38,0,0,1-5.37-2.67,1.11,1.11,0,0,1-.48-.94l.35-18.73a2.17,2.17,0,0,1,1.77-2.24,85.11,85.11,0,0,1,30.62-2.35.56.56,0,0,1,.56.61l.83,33.94c0,.35-.16.49-.5.4Q258.65,298.16,245,293.61Z"/><path class="cls-3" d="M274.59,379.63a.51.51,0,0,1,.39.5l.51,25.88a.68.68,0,0,1-.47.71,10.45,10.45,0,0,1-2.77.79A161.93,161.93,0,0,1,237,407a.42.42,0,0,1-.42-.48l.74-36.37c0-.32.16-.44.47-.36Z"/></svg>