<?xml version="1.0" encoding="utf-8"?>
<!-- Generator: Adobe Illustrator 24.0.0, SVG Export Plug-In . SVG Version: 6.00 Build 0)  -->
<svg version="1.1" id="Capa_1" xmlns="http://www.w3.org/2000/svg" xmlns:xlink="http://www.w3.org/1999/xlink" x="0px" y="0px"
	 viewBox="0 0 512 512" style="enable-background:new 0 0 512 512;" xml:space="preserve">
<style type="text/css">
	.st0{fill:none;}
	.st1{fill:#1C7C54;}
	.st2{fill:#FFFFFF;}
</style>
<title>S logo svg</title>
<g>
	<path class="st0" d="M0,261.5c1.9,59.1,21.1,111.2,57.7,156.2c43.7,53.6,107.3,87.3,176.2,93.3c0.2,0,0.3-0.1,0.4-0.2
		c0,0,0-0.1,0-0.1l0.8-30.5c0-0.2,0.1-0.4,0.3-0.4c0,0,0.1,0,0.1,0c13.7,0.9,27.5,0.9,41.2,0c0.2,0,0.4,0.1,0.4,0.3c0,0,0,0.1,0,0.1
		l0.9,30.3c0,0.3,0.3,0.5,0.6,0.5c0,0,0,0,0,0l0,0c130.4-11.6,230-119,233.4-249.5V512H0V261.5z"/>
	<path class="st0" d="M0,0h249.1C177.9,2.3,110.7,33.5,64.3,86.3C23.5,132.7,2.1,187.4,0,250.4V0z"/>
	<path class="st1" d="M249.1,0h13.2c59.5,2.2,111.8,21.9,156.9,59c57.4,47.2,90.7,117.6,92.7,191.7v11.3
		C508.6,392.8,409,500.4,278.6,512c-0.3,0-0.6-0.2-0.6-0.5l0,0l-0.9-30.3c0-0.2-0.1-0.4-0.3-0.4c0,0-0.1,0-0.1,0
		c-13.7,0.9-27.5,0.9-41.2,0c-0.2,0-0.4,0.1-0.4,0.3c0,0,0,0.1,0,0.1l-0.8,30.5c0,0.2-0.1,0.3-0.3,0.3c0,0-0.1,0-0.1,0
		c-69-6.1-132.6-39.8-176.2-93.6C21.1,373.4,1.9,321.2,0,262v-11.1C2.1,187.8,23.5,133,64.3,86.5C110.7,33.5,177.9,2.3,249.1,0z
		 M249.1,55.5l-6.9,22.8c0,0.2-0.3,0.4-0.5,0.4c-1.9,0-3.8-0.6-5.5-1.5c-5.2-3-8.9-16.9-15.7-12.9c-2.1,1.2-3,3.5-3.2,5.8
		c-0.3,2.6-0.9,5.1-1.9,7.5c-0.7,1.5-1.2,3-1.4,4.7c0,4.2,4,6.9,7.9,4.9c6.4-3.3,11.1-7.1,18.3-3.8c0.3,0.1,0.4,0.4,0.3,0.7
		c0,0,0,0,0,0l-6.7,23.1c-0.1,0.3-0.4,0.5-0.7,0.5c-8.2-0.4-10.2-7.3-14.4-12.8c-2.2-2.9-5.7-3.6-8.1-0.7c-0.7,0.8-1.3,2.6-1.9,5.5
		c-0.7,3.1-1.6,6.1-2.8,9.1c-1.4,3.6,0.3,7.3,4.1,8c2.8,0.5,8.4-3.2,11.1-4.4c3.4-1.7,7.4-1.6,10.6,0.3c0.3,0.1,0.4,0.4,0.3,0.7
		l-6.4,22.7c-0.1,0.3-0.3,0.4-0.6,0.4c-4.1-0.1-7.1-1.6-9-4.6c-1.8-2.8-5.1-9-8.2-10c-3.4-1.1-6.3,1.7-6.8,5.1
		c-0.7,3.7-1.7,7.4-3.1,10.9c-1.4,3.7,2,9.6,6.4,7.6c3.5-1.7,7-3.2,10.6-4.7c3.3-1.3,5.9-0.7,8.9,0.6c0.3,0.1,0.4,0.5,0.3,0.8
		c-1.9,5.2-3.8,13.4-0.8,17.6c1.6,2.3,5.1,3.4,7.5,4.6c4.7,2.3,8,5.3,9.7,10.2s0.3,13.1,0.5,19c0,0.2,0.1,0.4,0.3,0.4c0,0,0,0,0.1,0
		l28.7,0.1c0.2,0,0.4-0.1,0.5-0.3c0,0,0-0.1,0-0.1c-0.3-7.1-0.4-14.2-0.3-21.3c0.2-12.7,16.1-20.1,18.3-34.3c0.4-2.5,0.1-6.2-0.9-11
		c-2.7-12.7-5.1-25.5-7.4-38.3c-1.4-8.2-1.1-24.4,9.2-26.7c0.3,0,0.5-0.3,0.6-0.6c7.4-27-31.1-39.9-39.3-11.8
		c-0.1,0.3-0.3,0.4-0.6,0.4c-7.4-0.6-10.1-4.6-14-11.1c-2.3-3.7-4.4-6.1-8.6-3c-1.2,0.7-2,2-2.3,3.4c-0.4,3.2-1.2,6.4-2.2,9.5
		c-1.6,4.6-2.4,8,2.6,10.2c0.3,0.1,0.7,0.2,1,0.1c8-2,12.9-8.8,21.9-4.2C249.2,54.8,249.3,55.2,249.1,55.5
		C249.2,55.5,249.2,55.5,249.1,55.5L249.1,55.5z M172.1,239.2c-11.9,18.1-14.3,41.7-9.3,62.5c7.9,32.8,34.2,47.4,64.4,55.7
		c20.9,5.7,36.4,9.9,46.5,12.6c4.9,1.3,9.6,3.4,13.9,6.1c10.8,6.8,13.9,22.4,5.9,32c-6.9,8.3-20.8,10.9-31.8,10.8
		c-10.3,0-20.5-0.7-30.7-1.8c-24.6-3-48.5-10.9-70.1-23c-0.2-0.1-0.3,0-0.4,0.1c0,0,0,0.1,0,0.1V449c0,0.3,0.1,0.6,0.4,0.7
		c9,5.5,18.7,9.8,28.9,12.8c22.4,6.4,45.7,9.4,69,8.9c23.1-0.4,47.8-3.3,67.9-15.7c24-14.8,35.1-37.5,33.3-68.1
		c-1.1-18.2-6.9-35-20.8-47.2c-11.1-9.8-26.6-16.7-40.9-20.7c-18.3-5.1-36.5-10.3-54.7-15.7c-12.2-3.6-22.6-12.2-21.2-26.3
		c2.3-21.9,35-21.8,50.4-20.5c23.4,1.9,46.2,8.1,67.4,18.3c0.3,0.1,0.5,0.1,0.5-0.3v-50.3c0-0.3-0.2-0.6-0.5-0.8
		c-14.9-8.8-31.3-14.8-48.4-17.5C251.6,200.3,196.9,201.6,172.1,239.2L172.1,239.2z M245,294.2c9.1,3,18.4,5.7,27.8,8
		c0.3,0.1,0.5,0,0.5-0.4l-0.8-34c0-0.3-0.2-0.6-0.5-0.6c0,0,0,0,0,0c-10.3-1.1-20.6-0.3-30.6,2.4c-1.1,0.2-1.8,1.2-1.8,2.2
		l-0.4,18.8c0,0.4,0.2,0.7,0.5,0.9C241.3,292.6,243.1,293.5,245,294.2L245,294.2z M274.6,380.3l-36.8-9.9c-0.3-0.1-0.5,0-0.5,0.4
		l-0.7,36.4c0,0.2,0.1,0.4,0.4,0.5c0,0,0,0,0.1,0c11.7,1.4,23.5,1.6,35.2,0.5c1-0.1,1.9-0.4,2.8-0.8c0.3-0.1,0.5-0.4,0.5-0.7
		l-0.5-26C275,380.6,274.8,380.4,274.6,380.3L274.6,380.3z"/>
	<path class="st0" d="M262.4,0H512v250.3c-2-74-35.3-144.3-92.7-191.4C374.1,21.8,321.8,2.2,262.4,0z"/>
	<path class="st2" d="M248.9,54.7c-9.1-4.6-13.9,2.2-21.9,4.2c-0.3,0.1-0.7,0.1-1-0.1c-5-2.2-4.3-5.6-2.6-10.1
		c1.1-3.1,1.8-6.2,2.2-9.4c0.3-1.4,1.1-2.6,2.3-3.4c4.2-3.1,6.4-0.7,8.6,3c4,6.4,6.7,10.5,14,11.1c0.3,0,0.5-0.1,0.6-0.4
		c8.2-28.1,46.7-15.3,39.3,11.7c-0.1,0.3-0.3,0.5-0.6,0.6c-10.3,2.3-10.6,18.5-9.2,26.7c2.3,12.8,4.7,25.5,7.4,38.3
		c1,4.8,1.3,8.5,0.9,11c-2.2,14.1-18.1,21.5-18.3,34.2c-0.1,7.1,0,14.2,0.3,21.2c0,0.2-0.1,0.4-0.3,0.5c0,0-0.1,0-0.1,0l-28.7-0.1
		c-0.2,0-0.4-0.1-0.4-0.3c0,0,0,0,0-0.1c-0.1-5.9,1.2-14.1-0.5-19s-5-7.9-9.7-10.2c-2.5-1.2-5.9-2.3-7.5-4.6
		c-2.9-4.2-1.1-12.4,0.8-17.6c0.1-0.3,0-0.6-0.3-0.8c-3.1-1.3-5.6-1.9-8.9-0.6c-3.6,1.5-7.1,3-10.6,4.6c-4.3,2-7.8-3.9-6.4-7.6
		c1.4-3.5,2.5-7.2,3.1-10.9c0.5-3.4,3.4-6.1,6.8-5c3.1,1,6.4,7.1,8.2,9.9c1.9,3,4.9,4.6,9,4.6c0.3,0,0.5-0.1,0.6-0.4l6.4-22.7
		c0.1-0.3,0-0.6-0.3-0.7c-3.3-1.9-7.3-2-10.6-0.3c-2.7,1.3-8.3,5-11.1,4.4c-3.8-0.7-5.5-4.5-4.1-8c1.2-2.9,2.1-6,2.8-9.1
		c0.6-2.9,1.2-4.7,1.9-5.5c2.4-2.8,5.9-2.1,8.1,0.7c4.2,5.5,6.2,12.4,14.4,12.8c0.3,0,0.6-0.2,0.7-0.5l6.7-23c0.1-0.3,0-0.6-0.3-0.7
		c0,0,0,0,0,0c-7.2-3.3-11.9,0.4-18.3,3.7c-4,2.1-7.9-0.6-7.9-4.9c0.2-1.6,0.7-3.2,1.4-4.6c1-2.4,1.6-4.9,1.9-7.5
		c0.2-2.3,1.1-4.6,3.2-5.8c6.8-3.9,10.5,10,15.7,12.9c1.7,0.9,3.6,1.4,5.5,1.5c0.2,0,0.5-0.1,0.5-0.4l6.9-22.8
		C249.2,55.1,249.1,54.8,248.9,54.7z"/>
	<path class="st2" d="M172.1,238.7c24.8-37.5,79.5-38.8,119.6-32.5c17.1,2.7,33.5,8.6,48.4,17.4c0.3,0.2,0.5,0.5,0.5,0.8v50.2
		c0,0.4-0.2,0.4-0.5,0.3c-21.1-10.2-44-16.4-67.4-18.3c-15.4-1.2-48.1-1.4-50.4,20.5c-1.5,14.1,9,22.7,21.2,26.3
		c18.2,5.3,36.4,10.6,54.7,15.7c14.3,4,29.8,10.9,40.9,20.7c14,12.3,19.7,29,20.8,47.2c1.9,30.6-9.2,53.2-33.3,68
		c-20.2,12.4-44.8,15.3-67.9,15.7c-23.3,0.5-46.6-2.5-69-8.9c-10.2-3-19.9-7.3-28.9-12.8c-0.3-0.1-0.4-0.4-0.4-0.7v-54.8
		c0-0.2,0.1-0.3,0.3-0.3h0c0,0,0.1,0,0.1,0c21.6,12.2,45.5,20,70.1,23c10.2,1.2,20.5,1.8,30.7,1.9c11,0.1,24.9-2.5,31.8-10.8
		c8-9.6,4.9-25.1-5.9-32c-4.3-2.7-9-4.8-13.9-6.1c-10.1-2.7-25.5-6.9-46.5-12.6c-30.2-8.2-56.6-22.9-64.5-55.6
		C157.8,280.4,160.2,256.8,172.1,238.7z"/>
	<path class="st2" d="M245,293.6c-1.9-0.6-3.7-1.5-5.4-2.7c-0.3-0.2-0.5-0.6-0.5-0.9l0.4-18.7c-0.1-1.1,0.7-2,1.8-2.2
		c10-2.6,20.4-3.4,30.6-2.4c0.3,0,0.6,0.2,0.6,0.6c0,0,0,0,0,0.1l0.8,33.9c0,0.4-0.2,0.5-0.5,0.4C263.4,299.3,254.1,296.6,245,293.6
		z"/>
	<path class="st2" d="M274.6,379.6c0.2,0.1,0.4,0.3,0.4,0.5l0.5,25.9c0,0.3-0.2,0.6-0.5,0.7c-0.9,0.4-1.8,0.7-2.8,0.8
		c-11.7,1.1-23.6,0.9-35.3-0.5c-0.2,0-0.4-0.2-0.4-0.4c0,0,0,0,0-0.1l0.7-36.4c0-0.3,0.2-0.4,0.5-0.4L274.6,379.6z"/>
</g>
</svg>
